<svg xmlns="http://www.w3.org/2000/svg" width="53.433" height="48.788" viewBox="0 0 53.433 48.788">
    <defs>
        <style>
            .cls-2{fill:#a4afc1}.cls-4{fill:#ea2}.cls-5{fill:#d99a1b}.cls-6{fill:#d5dbe1}
        </style>
    </defs>
    <g id="content" transform="translate(-.583 -1.905)">
        <g id="Group_1665" data-name="Group 1665" transform="translate(.583 2.495)">
            <path id="Path_3599" fill="#efefef" d="M48.52 11.627c0 10.611 5.5 17.9 5.5 23.01s-2.939 15.851-26.46 15.851S.583 36.042.583 30.419C.583 4.085 48.52-7.164 48.52 11.627z" data-name="Path 3599" transform="translate(-.583 -2.29)"/>
        </g>
        <g id="Group_1666" data-name="Group 1666" transform="translate(8.849 1.908)">
            <path id="Path_3600" d="M0 0h3.068v1.534H0z" class="cls-2" data-name="Path 3600" transform="rotate(-45 2.618 1.085)"/>
        </g>
        <g id="Group_1667" data-name="Group 1667" transform="translate(2.612 8.144)">
            <path id="Path_3601" d="M0 0h3.068v1.534H0z" class="cls-2" data-name="Path 3601" transform="rotate(-45 2.618 1.085)"/>
        </g>
        <g id="Group_1668" data-name="Group 1668" transform="translate(2.884 1.905)">
            <path id="Path_3602" d="M0 0h1.534v3.068H0z" class="cls-2" data-name="Path 3602" transform="rotate(-45 1.31 .542)"/>
        </g>
        <g id="Group_1669" data-name="Group 1669" transform="translate(10.043 16.24)">
            <path id="Path_3603" fill="#f3f3f1" d="M38.2 37.328H9.818A3.067 3.067 0 0 1 6.75 34.26V11.25h34.515v23.01a3.067 3.067 0 0 1-3.065 3.068z" data-name="Path 3603" transform="translate(-6.75 -11.25)"/>
        </g>
        <g id="Group_1670" data-name="Group 1670" transform="translate(10.043 10.871)">
            <path id="Path_3604" d="M41.265 13.119H6.75v-2.3A3.067 3.067 0 0 1 9.818 7.75H38.2a3.067 3.067 0 0 1 3.068 3.068z" class="cls-4" data-name="Path 3604" transform="translate(-6.75 -7.75)"/>
        </g>
        <g id="Group_1671" data-name="Group 1671" transform="translate(14.645 21.609)">
            <path id="Path_3605" d="M9.75 14.75h5.369v5.369H9.75z" class="cls-4" data-name="Path 3605" transform="translate(-9.75 -14.75)"/>
        </g>
        <g id="Group_1672" data-name="Group 1672" transform="translate(14.645 32.347)">
            <path id="Path_3606" d="M9.75 21.75h5.369v5.369H9.75z" class="cls-4" data-name="Path 3606" transform="translate(-9.75 -21.75)"/>
        </g>
        <g id="Group_1673" data-name="Group 1673" transform="translate(10.043 10.871)">
            <path id="Path_3607" d="M13.269 7.75H9.818a3.067 3.067 0 0 0-3.068 3.068v2.3h3.45v-2.3a3.067 3.067 0 0 1 3.069-3.068z" class="cls-5" data-name="Path 3607" transform="translate(-6.75 -7.75)"/>
        </g>
        <g id="Group_1674" data-name="Group 1674" transform="translate(14.645 21.609)">
            <path id="Path_3608" d="M9.75 14.75h3.45v5.369H9.75z" class="cls-5" data-name="Path 3608" transform="translate(-9.75 -14.75)"/>
        </g>
        <g id="Group_1675" data-name="Group 1675" transform="translate(14.645 32.347)">
            <path id="Path_3609" d="M9.75 21.75h3.45v5.369H9.75z" class="cls-5" data-name="Path 3609" transform="translate(-9.75 -21.75)"/>
        </g>
        <g id="Group_1676" data-name="Group 1676" transform="translate(10.043 16.24)">
            <path id="Path_3610" d="M10.2 34.26V11.25H6.75v23.01a3.067 3.067 0 0 0 3.068 3.068h3.451A3.067 3.067 0 0 1 10.2 34.26z" class="cls-6" data-name="Path 3610" transform="translate(-6.75 -11.25)"/>
        </g>
        <g id="Group_1677" data-name="Group 1677" transform="translate(24.616 16.24)">
            <path id="Path_3611" d="M19.7 34.26V11.25h-3.45v23.01a3.067 3.067 0 0 0 3.068 3.068h3.451A3.067 3.067 0 0 1 19.7 34.26z" class="cls-6" data-name="Path 3611" transform="translate(-16.25 -11.25)"/>
        </g>
        <g id="Group_1678" data-name="Group 1678" transform="translate(13.495 20.458)">
            <path id="Path_3612" d="M15.519 21.67H10.15A1.151 1.151 0 0 1 9 20.519V15.15A1.151 1.151 0 0 1 10.15 14h5.369a1.151 1.151 0 0 1 1.15 1.15v5.369a1.151 1.151 0 0 1-1.15 1.151zm-4.218-2.3h3.068V16.3H11.3z" data-name="Path 3612" transform="translate(-9 -14)"/>
        </g>
        <g id="Group_1679" data-name="Group 1679" transform="translate(13.495 31.196)">
            <path id="Path_3613" d="M15.519 28.67H10.15A1.151 1.151 0 0 1 9 27.519V22.15A1.151 1.151 0 0 1 10.15 21h5.369a1.151 1.151 0 0 1 1.15 1.15v5.369a1.151 1.151 0 0 1-1.15 1.151zm-4.218-2.3h3.068V23.3H11.3z" data-name="Path 3613" transform="translate(-9 -21)"/>
        </g>
        <g id="Group_1680" data-name="Group 1680" transform="translate(30.368 21.992)">
            <path id="Path_3614" d="M20 15h10.738v2.3H20z" data-name="Path 3614" transform="translate(-20 -15)"/>
        </g>
        <g id="Group_1681" data-name="Group 1681" transform="translate(30.368 28.128)">
            <path id="Path_3615" d="M20 19h10.738v2.3H20z" data-name="Path 3615" transform="translate(-20 -19)"/>
        </g>
        <g id="Group_1682" data-name="Group 1682" transform="translate(30.368 34.264)">
            <path id="Path_3616" d="M20 23h10.738v2.3H20z" data-name="Path 3616" transform="translate(-20 -23)"/>
        </g>
        <g id="Group_1683" data-name="Group 1683" transform="translate(8.893 9.72)">
            <path id="Path_3617" d="M38.6 40.748H10.218A4.222 4.222 0 0 1 6 36.529V11.218A4.222 4.222 0 0 1 10.218 7H38.6a4.222 4.222 0 0 1 4.218 4.218v25.311a4.222 4.222 0 0 1-4.218 4.219zM10.218 9.3A1.92 1.92 0 0 0 8.3 11.218v25.311a1.92 1.92 0 0 0 1.917 1.917H38.6a1.92 1.92 0 0 0 1.917-1.917V11.218A1.92 1.92 0 0 0 38.6 9.3z" data-name="Path 3617" transform="translate(-6 -7)"/>
        </g>
        <g id="Group_1684" data-name="Group 1684" transform="translate(10.043 15.089)">
            <path id="Path_3618" d="M6.75 10.5h34.515v2.3H6.75z" data-name="Path 3618" transform="translate(-6.75 -10.5)"/>
        </g>
        <g id="Group_1685" data-name="Group 1685" transform="translate(23.465 16.623)">
            <path id="Path_3619" d="M15.5 11.5h2.3v26.078h-2.3z" data-name="Path 3619" transform="translate(-15.5 -11.5)"/>
        </g>
        <g id="Group_1686" data-name="Group 1686" transform="translate(2.757 41.167)">
            <path id="Path_3620" d="M2 27.5h49.087v2.3H2z" data-name="Path 3620" transform="translate(-2 -27.5)"/>
        </g>
    </g>
</svg>
