<svg xmlns="http://www.w3.org/2000/svg" width="165.711" height="32.694" viewBox="0 0 165.711 32.694">
    <defs>
        <style>
            .prefix__cls-1,.prefix__cls-2{fill:#182828;fill-rule:evenodd}.prefix__cls-2{fill:#ea2}
        </style>
    </defs>
    <g id="prefix__UI" transform="translate(-.008 -.285)">
        <g id="prefix__Artboard" transform="translate(-200 -42)">
            <g id="prefix__Group-63" transform="translate(-1)">
                <g id="prefix___2_2" data-name="2.2" transform="translate(201 42)">
                    <path id="prefix__Fill-334" d="M49.121 25.135v-6.993h-7.047v6.993a.785.785 0 0 1-.785.785H39.1a.785.785 0 0 1-.785-.785V7.476a.785.785 0 0 1 .785-.785h2.184a.785.785 0 0 1 .785.785v7.344h7.049V7.476a.785.785 0 0 1 .785-.785h2.184a.785.785 0 0 1 .785.785v17.659a.785.785 0 0 1-.785.785h-2.181a.785.785 0 0 1-.785-.785" class="prefix__cls-1"/>
                    <path id="prefix__Fill-336" d="M58.439 25.922V6.693H62.2v19.229z" class="prefix__cls-1"/>
                    <path id="prefix__Fill-337" d="M75.322 10.045h-1.863a1.527 1.527 0 0 0-1.674 1.7v3.916h3.538a2.72 2.72 0 0 0 2.728-2.808 2.575 2.575 0 0 0-2.727-2.809zm2.914 15.881L74.483 18.8h-2.7v7.13h-3.756v-15.1c0-2.809 1.135-4.132 4.349-4.131h3.187a5.875 5.875 0 0 1 6.237 6.156 5.547 5.547 0 0 1-3.512 5.32l4.293 7.752z" class="prefix__cls-1"/>
                    <path id="prefix__Fill-338" d="M93.5 11.831l-2.38 7.616h4.645zm4.21 14.1l-1.079-3.322h-6.457L89.12 25.93H85.2l6.165-17.61c.568-1.3 1.216-1.62 2.134-1.62.864 0 1.485.244 1.971 1.621l6.154 17.61z" class="prefix__cls-1"/>
                    <path id="prefix__Fill-339" d="M112.971 10.053v15.88h-3.754v-15.88h-5.132V6.7h14.044v3.349z" class="prefix__cls-1"/>
                    <path id="prefix__Fill-340" d="M122.394 25.935V6.706h3.754v19.229z" class="prefix__cls-1"/>
                    <path id="prefix__Fill-341" d="M142.328 15.811c0-3.214-.431-5.915-3.888-5.915-3.511 0-3.89 2.7-3.89 5.914v1c.026 2.944.242 5.942 3.888 5.943 3.538 0 3.89-2.943 3.89-5.941zm3.754 1.081c0 6.482-2.324 9.209-7.645 9.208-5.4 0-7.642-2.729-7.641-9.292V15.4c0-5.861 2.244-8.858 7.645-8.857 5.294 0 7.643 3 7.641 8.887z" class="prefix__cls-1"/>
                    <path id="prefix__Fill-342" d="M165.715 24a2.031 2.031 0 0 1-1.81 2.16c-.837 0-1.971-.216-3.051-2.161l-6.642-10.4v12.342h-3.754V6.712h3.619l7.885 12.588V6.715h3.754z" class="prefix__cls-1"/>
                    <path id="prefix__Fill-343" d="M8.44 5.739a1.254 1.254 0 1 1-1.254-1.255A1.254 1.254 0 0 1 8.44 5.739" class="prefix__cls-2"/>
                    <path id="prefix__Fill-344" d="M8.754 13.024a1.568 1.568 0 1 1-1.568-1.568 1.568 1.568 0 0 1 1.568 1.568" class="prefix__cls-2"/>
                    <path id="prefix__Fill-345" d="M8.754 20.31a1.568 1.568 0 1 1-1.568-1.568 1.568 1.568 0 0 1 1.568 1.568" class="prefix__cls-2"/>
                    <path id="prefix__Fill-346" d="M8.44 27.6a1.254 1.254 0 1 1-1.255-1.255A1.255 1.255 0 0 1 8.44 27.6" class="prefix__cls-2"/>
                    <path id="prefix__Fill-347" d="M22.761 5.739a1.254 1.254 0 1 1-1.255-1.255 1.254 1.254 0 0 1 1.255 1.255" class="prefix__cls-2"/>
                    <path id="prefix__Fill-348" d="M23.075 13.024a1.568 1.568 0 1 1-1.568-1.568 1.568 1.568 0 0 1 1.568 1.568" class="prefix__cls-2"/>
                    <path id="prefix__Fill-349" d="M23.075 20.31a1.568 1.568 0 1 1-1.568-1.568 1.568 1.568 0 0 1 1.568 1.568" class="prefix__cls-2"/>
                    <path id="prefix__Fill-350" d="M22.761 27.6a1.254 1.254 0 1 1-1.255-1.255 1.255 1.255 0 0 1 1.255 1.255" class="prefix__cls-2"/>
                    <path id="prefix__Fill-351" d="M2.517 9.057A1.254 1.254 0 1 1 1.262 7.8a1.255 1.255 0 0 1 1.255 1.257" class="prefix__cls-2"/>
                    <path id="prefix__Fill-352" d="M2.517 16.632a1.254 1.254 0 1 1-1.254-1.255 1.255 1.255 0 0 1 1.254 1.255" class="prefix__cls-2"/>
                    <path id="prefix__Fill-353" d="M2.517 24.145a1.254 1.254 0 1 1-1.255-1.255 1.255 1.255 0 0 1 1.254 1.255" class="prefix__cls-2"/>
                    <path id="prefix__Fill-354" d="M28.658 16.632a1.255 1.255 0 1 1-1.258-1.255 1.255 1.255 0 0 1 1.255 1.255" class="prefix__cls-2"/>
                    <path id="prefix__Fill-355" d="M28.606 24.145a1.2 1.2 0 1 1-1.2-1.2 1.2 1.2 0 0 1 1.2 1.2" class="prefix__cls-2"/>
                    <path id="prefix__Fill-356" d="M28.658 9.057A1.255 1.255 0 1 1 27.4 7.8a1.255 1.255 0 0 1 1.255 1.255" class="prefix__cls-2"/>
                    <path id="prefix__Fill-357" d="M15.571 1.539A1.254 1.254 0 1 1 14.316.285 1.254 1.254 0 0 1 15.57 1.54" class="prefix__cls-2"/>
                    <path id="prefix__Fill-358" d="M15.885 9.086a1.568 1.568 0 1 1-1.568-1.568 1.568 1.568 0 0 1 1.568 1.568" class="prefix__cls-2"/>
                    <path id="prefix__Fill-359" d="M16.512 16.632a2.2 2.2 0 1 1-2.2-2.2 2.2 2.2 0 0 1 2.2 2.2" class="prefix__cls-2"/>
                    <path id="prefix__Fill-360" d="M15.885 24.178a1.568 1.568 0 1 1-1.568-1.568 1.568 1.568 0 0 1 1.568 1.568" class="prefix__cls-2"/>
                    <path id="prefix__Fill-361" d="M15.571 31.725a1.254 1.254 0 1 1-1.254-1.255 1.254 1.254 0 0 1 1.254 1.255" class="prefix__cls-2"/>
                </g>
            </g>
        </g>
    </g>
</svg>
