<svg xmlns="http://www.w3.org/2000/svg" width="49.197" height="54.539" viewBox="0 0 49.197 54.539">
    <defs>
        <style>
            .cls-2{fill:#a4afc1}.cls-4{fill:#ea2}.cls-5{fill:#d99a1b}
        </style>
    </defs>
    <g id="web-development" transform="translate(-2.29 -.584)">
        <g id="Group_1643" data-name="Group 1643" transform="translate(2.29 .584)">
            <path id="Path_3583" fill="#efefef" d="M11.821 6.194c10.83 0 18.268-5.61 23.487-5.61s16.179 3 16.179 27.008S36.742 55.123 31 55.123C4.122 55.125-7.36 6.194 11.821 6.194z" data-name="Path 3583" transform="translate(-2.29 -.584)"/>
        </g>
        <g id="Group_1644" data-name="Group 1644" transform="translate(40.828 2.659)">
            <path id="Path_3584" d="M0 0h1.566v3.132H0z" class="cls-2" data-name="Path 3584" transform="rotate(-45 1.336 .553)"/>
        </g>
        <g id="Group_1645" data-name="Group 1645" transform="translate(47.194 9.026)">
            <path id="Path_3585" d="M0 0h1.566v3.132H0z" class="cls-2" data-name="Path 3585" transform="rotate(-45 1.336 .553)"/>
        </g>
        <g id="Group_1646" data-name="Group 1646" transform="translate(46.918 2.66)">
            <path id="Path_3586" d="M0 0h3.132v1.566H0z" class="cls-2" data-name="Path 3586" transform="rotate(-45 2.673 1.107)"/>
        </g>
        <g id="Group_1647" data-name="Group 1647" transform="translate(9.273 15.719)">
            <path id="Path_3587" fill="#f3f3f1" d="M38.848 36.868H9.882a3.131 3.131 0 0 1-3.132-3.131V10.25h35.23v23.487a3.131 3.131 0 0 1-3.132 3.131z" data-name="Path 3587" transform="translate(-6.75 -10.25)"/>
        </g>
        <g id="Group_1648" data-name="Group 1648" transform="translate(9.273 10.239)">
            <path id="Path_3588" d="M41.98 12.23H6.75V9.882A3.131 3.131 0 0 1 9.882 6.75h28.966a3.131 3.131 0 0 1 3.132 3.132z" class="cls-4" data-name="Path 3588" transform="translate(-6.75 -6.75)"/>
        </g>
        <g id="Group_1649" data-name="Group 1649" transform="translate(21.017 22.765)">
            <path id="Path_3589" d="M20.59 15.318l1.027-.467a1.13 1.13 0 0 1 1.527.633l.4 1.057a1.133 1.133 0 0 0 .662.662l1.057.4a1.131 1.131 0 0 1 .633 1.527l-.467 1.027a1.136 1.136 0 0 0 0 .936l.467 1.027a1.13 1.13 0 0 1-.633 1.527l-1.057.4a1.133 1.133 0 0 0-.662.662l-.4 1.057a1.131 1.131 0 0 1-1.527.633l-1.027-.467a1.136 1.136 0 0 0-.936 0l-1.027.467a1.13 1.13 0 0 1-1.527-.633l-.4-1.066a1.133 1.133 0 0 0-.662-.662l-1.057-.4a1.131 1.131 0 0 1-.633-1.527l.467-1.027a1.136 1.136 0 0 0 0-.936l-.467-1.027a1.13 1.13 0 0 1 .633-1.527l1.057-.4a1.133 1.133 0 0 0 .662-.662l.4-1.057a1.131 1.131 0 0 1 1.527-.633l1.027.467a1.136 1.136 0 0 0 .936 0z" class="cls-4" data-name="Path 3589" transform="translate(-14.25 -14.75)"/>
        </g>
        <g id="Group_1650" data-name="Group 1650" transform="translate(23.365 32.567)">
            <path id="Path_3590" d="M22.8 21.01v12.9l-3.527-3.13-3.523 3.132V21.01z" class="cls-4" data-name="Path 3590" transform="translate(-15.75 -21.01)"/>
        </g>
        <g id="Group_1651" data-name="Group 1651" transform="translate(9.273 10.239)">
            <path id="Path_3591" d="M13.4 6.75H9.882A3.131 3.131 0 0 0 6.75 9.882v2.348h3.523V9.882A3.131 3.131 0 0 1 13.4 6.75z" class="cls-5" data-name="Path 3591" transform="translate(-6.75 -6.75)"/>
        </g>
        <g id="Group_1652" data-name="Group 1652" transform="translate(21.017 22.765)">
            <path id="Path_3592" d="M20.623 25.759l-.4-1.057a1.133 1.133 0 0 0-.662-.662l-1.057-.4a1.131 1.131 0 0 1-.633-1.527l.467-1.027a1.136 1.136 0 0 0 0-.936l-.467-1.027a1.13 1.13 0 0 1 .633-1.527l1.057-.4a1.133 1.133 0 0 0 .662-.662l.4-1.057a1.11 1.11 0 0 1 .161-.254l-.194.088a1.136 1.136 0 0 1-.936 0l-1.027-.467a1.13 1.13 0 0 0-1.527.633l-.4 1.057a1.133 1.133 0 0 1-.662.662l-1.057.4a1.131 1.131 0 0 0-.633 1.527l.467 1.027a1.136 1.136 0 0 1 0 .936l-.467 1.027a1.13 1.13 0 0 0 .633 1.527l1.057.4a1.133 1.133 0 0 1 .662.662l.4 1.057a1.131 1.131 0 0 0 1.527.633l1.027-.467a1.136 1.136 0 0 1 .936 0l.194.088a1.013 1.013 0 0 1-.161-.254z" class="cls-5" data-name="Path 3592" transform="translate(-14.25 -14.75)"/>
        </g>
        <g id="Group_1653" data-name="Group 1653" transform="translate(23.365 32.567)">
            <path id="Path_3593" d="M19.273 21.01H15.75v12.9l3.523-3.132z" class="cls-5" data-name="Path 3593" transform="translate(-15.75 -21.01)"/>
        </g>
        <g id="Group_1654" data-name="Group 1654" transform="translate(9.273 15.719)">
            <path id="Path_3594" fill="#d5dbe1" d="M10.273 33.737V10.25H6.75v23.487a3.131 3.131 0 0 0 3.132 3.132H13.4a3.131 3.131 0 0 1-3.127-3.132z" data-name="Path 3594" transform="translate(-6.75 -10.25)"/>
        </g>
        <g id="Group_1655" data-name="Group 1655" transform="translate(19.845 21.591)">
            <path id="Path_3595" d="M18.582 28.09a2.3 2.3 0 0 1-2.158-1.5l-.4-1.055L15 25.168a2.3 2.3 0 0 1-1.289-3.111l.468-1.029-.467-.991A2.3 2.3 0 0 1 15 16.924l1.055-.4.373-1.032a2.3 2.3 0 0 1 3.111-1.289l1.008.457 1.01-.459a2.3 2.3 0 0 1 3.113 1.289l.4 1.055 1.032.373a2.3 2.3 0 0 1 1.289 3.111l-.468 1.029.467.991a2.306 2.306 0 0 1-1.29 3.118l-1.058.4-.371 1.032a2.3 2.3 0 0 1-3.114 1.287l-1.026-.467-.993.467a2.259 2.259 0 0 1-.952.208zm-.019-11.745l-.338 1.033a2.3 2.3 0 0 1-1.35 1.348l-1.055.4.49.969a2.315 2.315 0 0 1 0 1.907l-.468 1.029 1.032.338a2.308 2.308 0 0 1 1.35 1.348l.4 1.057.969-.49a2.311 2.311 0 0 1 1.906 0l1.029.468.338-1.032a2.3 2.3 0 0 1 1.35-1.348l1.057-.4-.497-.972a2.311 2.311 0 0 1 0-1.906l.468-1.03-1.033-.338a2.3 2.3 0 0 1-1.348-1.35l-.4-1.055-.969.49a2.308 2.308 0 0 1-1.9 0z" data-name="Path 3595" transform="translate(-13.502 -14.001)"/>
        </g>
        <g id="Group_1656" data-name="Group 1656" transform="translate(22.191 32.567)">
            <path id="Path_3596" d="M23.22 35.086a1.176 1.176 0 0 1-.78-.3l-2.74-2.434-2.746 2.438A1.174 1.174 0 0 1 15 33.912V21.01h2.349V31.3l1.569-1.4a1.175 1.175 0 0 1 1.56 0l1.569 1.4V21.01h2.349v12.9a1.171 1.171 0 0 1-1.174 1.174z" data-name="Path 3596" transform="translate(-15 -21.01)"/>
        </g>
        <g id="Group_1657" data-name="Group 1657" transform="translate(8.099 9.064)">
            <path id="Path_3597" d="M39.273 40.447h-6.655V38.1h6.655a1.96 1.96 0 0 0 1.957-1.957V10.306a1.96 1.96 0 0 0-1.957-1.957H10.306a1.96 1.96 0 0 0-1.957 1.957v25.835a1.96 1.96 0 0 0 1.957 1.959h6.654v2.349h-6.654A4.309 4.309 0 0 1 6 36.141V10.306A4.309 4.309 0 0 1 10.306 6h28.967a4.309 4.309 0 0 1 4.306 4.306v25.835a4.309 4.309 0 0 1-4.306 4.306z" data-name="Path 3597" transform="translate(-6 -6)"/>
        </g>
        <g id="Group_1658" data-name="Group 1658" transform="translate(9.273 14.544)">
            <path id="Path_3598" d="M6.75 9.5h35.23v2.349H6.75z" data-name="Path 3598" transform="translate(-6.75 -9.5)"/>
        </g>
    </g>
</svg>
